<mxfile host="Electron" modified="2024-03-19T11:20:13.370Z" agent="Mozilla/5.0 (Windows NT 10.0; Win64; x64) AppleWebKit/537.36 (KHTML, like Gecko) draw.io/24.0.4 Chrome/120.0.6099.109 Electron/28.1.0 Safari/537.36" etag="hzTlUCkpycCR9OoCl7Tq" version="24.0.4" type="device">
  <diagram name="Page-1" id="iVkTUh4iVScigOyPXqrg">
    <mxGraphModel dx="743" dy="645" grid="1" gridSize="10" guides="1" tooltips="1" connect="1" arrows="1" fold="1" page="1" pageScale="1" pageWidth="827" pageHeight="1169" math="0" shadow="0">
      <root>
        <mxCell id="0" />
        <mxCell id="1" parent="0" />
        <mxCell id="Tb0AGY3zbAqKrl84XnaY-22" value="" style="edgeStyle=orthogonalEdgeStyle;rounded=0;orthogonalLoop=1;jettySize=auto;html=1;strokeWidth=2;endArrow=blockThin;endFill=1;strokeColor=#000000;" parent="1" source="Tb0AGY3zbAqKrl84XnaY-1" target="Tb0AGY3zbAqKrl84XnaY-5" edge="1">
          <mxGeometry relative="1" as="geometry" />
        </mxCell>
        <mxCell id="Tb0AGY3zbAqKrl84XnaY-1" value="" style="rounded=1;whiteSpace=wrap;html=1;fillColor=#65489d;fontColor=#ffffff;strokeColor=none;" parent="1" vertex="1">
          <mxGeometry x="40" y="40" width="160" height="60" as="geometry" />
        </mxCell>
        <mxCell id="Tb0AGY3zbAqKrl84XnaY-4" value="" style="group" parent="1" vertex="1" connectable="0">
          <mxGeometry x="60" y="55" width="120" height="30" as="geometry" />
        </mxCell>
        <mxCell id="Tb0AGY3zbAqKrl84XnaY-2" value="&lt;font face=&quot;IBM Plex Sans&quot;&gt;1&lt;/font&gt;" style="ellipse;whiteSpace=wrap;html=1;aspect=fixed;" parent="Tb0AGY3zbAqKrl84XnaY-4" vertex="1">
          <mxGeometry y="5" width="20" height="20" as="geometry" />
        </mxCell>
        <mxCell id="Tb0AGY3zbAqKrl84XnaY-3" value="&lt;font color=&quot;#ffffff&quot;&gt;Mole balance&lt;/font&gt;" style="text;html=1;align=center;verticalAlign=middle;resizable=0;points=[];autosize=1;strokeColor=none;fillColor=none;" parent="Tb0AGY3zbAqKrl84XnaY-4" vertex="1">
          <mxGeometry x="30" width="90" height="30" as="geometry" />
        </mxCell>
        <mxCell id="Tb0AGY3zbAqKrl84XnaY-23" style="edgeStyle=orthogonalEdgeStyle;rounded=0;orthogonalLoop=1;jettySize=auto;html=1;entryX=0.5;entryY=0;entryDx=0;entryDy=0;strokeColor=#000000;strokeWidth=2;align=center;verticalAlign=middle;fontFamily=Helvetica;fontSize=11;fontColor=default;labelBackgroundColor=default;endArrow=blockThin;endFill=1;" parent="1" source="Tb0AGY3zbAqKrl84XnaY-5" target="Tb0AGY3zbAqKrl84XnaY-10" edge="1">
          <mxGeometry relative="1" as="geometry" />
        </mxCell>
        <mxCell id="Tb0AGY3zbAqKrl84XnaY-5" value="" style="rounded=1;whiteSpace=wrap;html=1;fillColor=#388ecc;fontColor=#ffffff;strokeColor=none;" parent="1" vertex="1">
          <mxGeometry x="40" y="119" width="160" height="60" as="geometry" />
        </mxCell>
        <mxCell id="Tb0AGY3zbAqKrl84XnaY-6" value="" style="group" parent="1" vertex="1" connectable="0">
          <mxGeometry x="60" y="134" width="120" height="30" as="geometry" />
        </mxCell>
        <mxCell id="Tb0AGY3zbAqKrl84XnaY-7" value="&lt;font face=&quot;IBM Plex Sans&quot;&gt;2&lt;/font&gt;" style="ellipse;whiteSpace=wrap;html=1;aspect=fixed;" parent="Tb0AGY3zbAqKrl84XnaY-6" vertex="1">
          <mxGeometry y="5" width="20" height="20" as="geometry" />
        </mxCell>
        <mxCell id="Tb0AGY3zbAqKrl84XnaY-8" value="&lt;font color=&quot;#ffffff&quot;&gt;Rate law&lt;/font&gt;" style="text;html=1;align=center;verticalAlign=middle;resizable=0;points=[];autosize=1;strokeColor=none;fillColor=none;fontFamily=Helvetica;fontSize=12;fontColor=default;" parent="Tb0AGY3zbAqKrl84XnaY-6" vertex="1">
          <mxGeometry x="40" width="70" height="30" as="geometry" />
        </mxCell>
        <mxCell id="Tb0AGY3zbAqKrl84XnaY-24" style="edgeStyle=orthogonalEdgeStyle;rounded=0;orthogonalLoop=1;jettySize=auto;html=1;entryX=0.5;entryY=0;entryDx=0;entryDy=0;strokeColor=#000000;strokeWidth=2;align=center;verticalAlign=middle;fontFamily=Helvetica;fontSize=11;fontColor=default;labelBackgroundColor=default;endArrow=blockThin;endFill=1;" parent="1" source="Tb0AGY3zbAqKrl84XnaY-10" target="Tb0AGY3zbAqKrl84XnaY-14" edge="1">
          <mxGeometry relative="1" as="geometry" />
        </mxCell>
        <mxCell id="Tb0AGY3zbAqKrl84XnaY-10" value="" style="rounded=1;whiteSpace=wrap;html=1;fillColor=#105e5d;fontColor=#ffffff;strokeColor=none;" parent="1" vertex="1">
          <mxGeometry x="40" y="200" width="160" height="60" as="geometry" />
        </mxCell>
        <mxCell id="Tb0AGY3zbAqKrl84XnaY-11" value="" style="group" parent="1" vertex="1" connectable="0">
          <mxGeometry x="60" y="215" width="125" height="30" as="geometry" />
        </mxCell>
        <mxCell id="Tb0AGY3zbAqKrl84XnaY-12" value="&lt;font face=&quot;IBM Plex Sans&quot;&gt;3&lt;/font&gt;" style="ellipse;whiteSpace=wrap;html=1;aspect=fixed;" parent="Tb0AGY3zbAqKrl84XnaY-11" vertex="1">
          <mxGeometry y="5" width="20" height="20" as="geometry" />
        </mxCell>
        <mxCell id="Tb0AGY3zbAqKrl84XnaY-13" value="&lt;font color=&quot;#ffffff&quot;&gt;Stoichiometry&lt;/font&gt;" style="text;html=1;align=center;verticalAlign=middle;resizable=0;points=[];autosize=1;strokeColor=none;fillColor=none;" parent="Tb0AGY3zbAqKrl84XnaY-11" vertex="1">
          <mxGeometry x="25" width="100" height="30" as="geometry" />
        </mxCell>
        <mxCell id="Tb0AGY3zbAqKrl84XnaY-25" style="edgeStyle=orthogonalEdgeStyle;rounded=0;orthogonalLoop=1;jettySize=auto;html=1;entryX=0.5;entryY=0;entryDx=0;entryDy=0;strokeColor=#000000;strokeWidth=2;align=center;verticalAlign=middle;fontFamily=Helvetica;fontSize=11;fontColor=default;labelBackgroundColor=default;endArrow=blockThin;endFill=1;" parent="1" source="Tb0AGY3zbAqKrl84XnaY-14" target="Tb0AGY3zbAqKrl84XnaY-18" edge="1">
          <mxGeometry relative="1" as="geometry" />
        </mxCell>
        <mxCell id="Tb0AGY3zbAqKrl84XnaY-14" value="" style="rounded=1;whiteSpace=wrap;html=1;fillColor=#9f1d54;fontColor=#ffffff;strokeColor=none;" parent="1" vertex="1">
          <mxGeometry x="40" y="280" width="160" height="60" as="geometry" />
        </mxCell>
        <mxCell id="Tb0AGY3zbAqKrl84XnaY-15" value="" style="group" parent="1" vertex="1" connectable="0">
          <mxGeometry x="60" y="295" width="120" height="30" as="geometry" />
        </mxCell>
        <mxCell id="Tb0AGY3zbAqKrl84XnaY-16" value="&lt;font face=&quot;IBM Plex Sans&quot;&gt;4&lt;/font&gt;" style="ellipse;whiteSpace=wrap;html=1;aspect=fixed;" parent="Tb0AGY3zbAqKrl84XnaY-15" vertex="1">
          <mxGeometry y="5" width="20" height="20" as="geometry" />
        </mxCell>
        <mxCell id="Tb0AGY3zbAqKrl84XnaY-17" value="&lt;font color=&quot;#ffffff&quot;&gt;Combine&lt;/font&gt;" style="text;html=1;align=center;verticalAlign=middle;resizable=0;points=[];autosize=1;strokeColor=none;fillColor=none;" parent="Tb0AGY3zbAqKrl84XnaY-15" vertex="1">
          <mxGeometry x="40" width="70" height="30" as="geometry" />
        </mxCell>
        <mxCell id="Tb0AGY3zbAqKrl84XnaY-18" value="" style="rounded=1;whiteSpace=wrap;html=1;fillColor=#4d1013;fontColor=#ffffff;strokeColor=none;" parent="1" vertex="1">
          <mxGeometry x="40" y="360" width="160" height="60" as="geometry" />
        </mxCell>
        <mxCell id="Tb0AGY3zbAqKrl84XnaY-19" value="" style="group" parent="1" vertex="1" connectable="0">
          <mxGeometry x="60" y="375" width="120" height="30" as="geometry" />
        </mxCell>
        <mxCell id="Tb0AGY3zbAqKrl84XnaY-20" value="&lt;font face=&quot;IBM Plex Sans&quot;&gt;5&lt;/font&gt;" style="ellipse;whiteSpace=wrap;html=1;aspect=fixed;" parent="Tb0AGY3zbAqKrl84XnaY-19" vertex="1">
          <mxGeometry y="5" width="20" height="20" as="geometry" />
        </mxCell>
        <mxCell id="Tb0AGY3zbAqKrl84XnaY-21" value="&lt;font color=&quot;#ffffff&quot;&gt;Evaluate&lt;/font&gt;" style="text;html=1;align=center;verticalAlign=middle;resizable=0;points=[];autosize=1;strokeColor=none;fillColor=none;" parent="Tb0AGY3zbAqKrl84XnaY-19" vertex="1">
          <mxGeometry x="40" width="70" height="30" as="geometry" />
        </mxCell>
      </root>
    </mxGraphModel>
  </diagram>
</mxfile>
